<?xml version="1.0" ?>
<svg height="40" version="1.1" width="40" xmlns="http://www.w3.org/2000/svg" style="overflow: hidden; position: absolute; left: 36px; top: 517px;">
    <desc style="-webkit-tap-highlight-color: rgba(0, 0, 0, 0);">Created with Rapha?l 2.1.2</desc>
    <defs style="-webkit-tap-highlight-color: rgba(0, 0, 0, 0);"></defs>
    <path fill="none" stroke="#ffffff" d="M20.826,5.75L21.222,6.938C22.762,7.513,23.811,8.378,23.811,9.564C23.811,11.969,19.503,13.062000000000001,15.499,13.062000000000001C11.496,13.062000000000001,7.188000000000001,11.969000000000001,7.188000000000001,9.564C7.188000000000001,8.292,8.398,7.390000000000001,10.126000000000001,6.818L10.514000000000001,5.653C8.071000000000002,6.300999999999999,6.187000000000001,7.529,6.187000000000001,9.562999999999999V11.826999999999998C6.187000000000001,13.050999999999998,6.872000000000002,13.981999999999998,7.9460000000000015,14.671999999999999L8.342000000000002,23.936999999999998C8.342000000000002,25.317999999999998,11.616000000000003,26.436999999999998,15.654000000000003,26.436999999999998C19.692000000000004,26.436999999999998,22.967000000000002,25.317999999999998,22.967000000000002,23.936999999999998L23.372000000000003,14.443999999999997C24.257000000000005,13.779999999999998,24.810000000000002,12.922999999999998,24.810000000000002,11.826999999999998V9.562C24.812,7.625,23.101,6.42,20.826,5.75ZM11.093,24.127C10.617,23.840999999999998,10.071,23.281,9.927,22.89C8.92,20.130000000000003,9.197,17.969,9.398,15.381C10.145,15.661,10.978,15.872,11.847999999999999,16.023C11.632,18.681,11.418,20.945999999999998,11.850999999999999,23.851C11.916,24.278,11.567,24.411,11.093,24.127ZM17.219,24.329C17.200000000000003,24.774,16.528000000000002,25.185000000000002,15.702000000000002,25.185000000000002C14.874000000000002,25.185000000000002,14.204000000000002,24.772000000000002,14.185000000000002,24.327C14.059000000000003,21.331000000000003,14.153000000000002,19.005000000000003,14.253000000000002,16.288000000000004C14.671000000000001,16.310000000000002,15.088000000000001,16.325000000000003,15.499000000000002,16.325000000000003C16.042,16.325000000000003,16.596000000000004,16.305000000000003,17.150000000000002,16.266000000000002C17.251,18.994,17.346,21.325,17.219,24.329ZM21.476,22.892C21.333,23.284,20.785999999999998,23.842,20.311,24.127C19.837,24.410999999999998,19.494,24.278,19.557,23.851C19.994,20.921,19.770999999999997,18.642,19.552,15.953999999999999C20.433,15.78,21.259999999999998,15.536999999999999,21.992,15.222999999999999C22.194,17.883,22.503,20.076,21.476,22.892ZM11.338,9.512C11.863,9.685,12.43,9.403,12.606,8.879000000000001H12.604L13.375,6.5630000000000015H17.935L18.706,8.879000000000001C18.846,9.298000000000002,19.236,9.564000000000002,19.655,9.564000000000002C19.759,9.564000000000002,19.866,9.547000000000002,19.971,9.512000000000002C20.495,9.337000000000002,20.779,8.770000000000003,20.604,8.247000000000002L19.602,5.246000000000002C19.466,4.839000000000002,19.084,4.563000000000002,18.657,4.563000000000002H12.655000000000001C12.227,4.563000000000002,11.843000000000002,4.838000000000003,11.707,5.246000000000002L10.707,8.245000000000003C10.532,8.77,10.815,9.337,11.338,9.512Z" stroke-width="3" stroke-linejoin="round" opacity="0" transform="matrix(1,0,0,1,4,4)" style="-webkit-tap-highlight-color: rgba(0, 0, 0, 0); stroke-linejoin: round; opacity: 0;"></path>
    <path fill="#333333" stroke="none" d="M20.826,5.75L21.222,6.938C22.762,7.513,23.811,8.378,23.811,9.564C23.811,11.969,19.503,13.062000000000001,15.499,13.062000000000001C11.496,13.062000000000001,7.188000000000001,11.969000000000001,7.188000000000001,9.564C7.188000000000001,8.292,8.398,7.390000000000001,10.126000000000001,6.818L10.514000000000001,5.653C8.071000000000002,6.300999999999999,6.187000000000001,7.529,6.187000000000001,9.562999999999999V11.826999999999998C6.187000000000001,13.050999999999998,6.872000000000002,13.981999999999998,7.9460000000000015,14.671999999999999L8.342000000000002,23.936999999999998C8.342000000000002,25.317999999999998,11.616000000000003,26.436999999999998,15.654000000000003,26.436999999999998C19.692000000000004,26.436999999999998,22.967000000000002,25.317999999999998,22.967000000000002,23.936999999999998L23.372000000000003,14.443999999999997C24.257000000000005,13.779999999999998,24.810000000000002,12.922999999999998,24.810000000000002,11.826999999999998V9.562C24.812,7.625,23.101,6.42,20.826,5.75ZM11.093,24.127C10.617,23.840999999999998,10.071,23.281,9.927,22.89C8.92,20.130000000000003,9.197,17.969,9.398,15.381C10.145,15.661,10.978,15.872,11.847999999999999,16.023C11.632,18.681,11.418,20.945999999999998,11.850999999999999,23.851C11.916,24.278,11.567,24.411,11.093,24.127ZM17.219,24.329C17.200000000000003,24.774,16.528000000000002,25.185000000000002,15.702000000000002,25.185000000000002C14.874000000000002,25.185000000000002,14.204000000000002,24.772000000000002,14.185000000000002,24.327C14.059000000000003,21.331000000000003,14.153000000000002,19.005000000000003,14.253000000000002,16.288000000000004C14.671000000000001,16.310000000000002,15.088000000000001,16.325000000000003,15.499000000000002,16.325000000000003C16.042,16.325000000000003,16.596000000000004,16.305000000000003,17.150000000000002,16.266000000000002C17.251,18.994,17.346,21.325,17.219,24.329ZM21.476,22.892C21.333,23.284,20.785999999999998,23.842,20.311,24.127C19.837,24.410999999999998,19.494,24.278,19.557,23.851C19.994,20.921,19.770999999999997,18.642,19.552,15.953999999999999C20.433,15.78,21.259999999999998,15.536999999999999,21.992,15.222999999999999C22.194,17.883,22.503,20.076,21.476,22.892ZM11.338,9.512C11.863,9.685,12.43,9.403,12.606,8.879000000000001H12.604L13.375,6.5630000000000015H17.935L18.706,8.879000000000001C18.846,9.298000000000002,19.236,9.564000000000002,19.655,9.564000000000002C19.759,9.564000000000002,19.866,9.547000000000002,19.971,9.512000000000002C20.495,9.337000000000002,20.779,8.770000000000003,20.604,8.247000000000002L19.602,5.246000000000002C19.466,4.839000000000002,19.084,4.563000000000002,18.657,4.563000000000002H12.655000000000001C12.227,4.563000000000002,11.843000000000002,4.838000000000003,11.707,5.246000000000002L10.707,8.245000000000003C10.532,8.77,10.815,9.337,11.338,9.512Z" transform="matrix(1,0,0,1,4,4)" style="-webkit-tap-highlight-color: rgba(0, 0, 0, 0);"></path>
    <rect x="0" y="0" width="32" height="32" r="0" rx="0" ry="0" fill="#000000" stroke="#000" opacity="0" style="-webkit-tap-highlight-color: rgba(0, 0, 0, 0); opacity: 0;"></rect>
</svg>